<?xml version="1.0" encoding="UTF-8" standalone="no"?>
<!-- Generator: Adobe Illustrator 16.0.0, SVG Export Plug-In . SVG Version: 6.00 Build 0)  -->

<svg
   xmlns:dc="http://purl.org/dc/elements/1.1/"
   xmlns:cc="http://creativecommons.org/ns#"
   xmlns:rdf="http://www.w3.org/1999/02/22-rdf-syntax-ns#"
   xmlns:svg="http://www.w3.org/2000/svg"
   xmlns="http://www.w3.org/2000/svg"
   xmlns:sodipodi="http://sodipodi.sourceforge.net/DTD/sodipodi-0.dtd"
   xmlns:inkscape="http://www.inkscape.org/namespaces/inkscape"
   version="1.1"
   id="Layer_1"
   x="0px"
   y="0px"
   width="245.42165"
   height="169.44922"
   viewBox="0 0 245.42165 169.44922"
   enable-background="new 0 0 612 792"
   xml:space="preserve"
   inkscape:version="0.48.2 r9819"
   sodipodi:docname="The Incredibles logo.svg"><metadata
   id="metadata21"><rdf:RDF><cc:Work
       rdf:about=""><dc:format>image/svg+xml</dc:format><dc:type
         rdf:resource="http://purl.org/dc/dcmitype/StillImage" /><dc:title></dc:title></cc:Work></rdf:RDF></metadata><defs
   id="defs19">
	
	
	
	
	
	
</defs><sodipodi:namedview
   pagecolor="#ffffff"
   bordercolor="#666666"
   borderopacity="1"
   objecttolerance="10"
   gridtolerance="10"
   guidetolerance="10"
   inkscape:pageopacity="0"
   inkscape:pageshadow="2"
   inkscape:window-width="1600"
   inkscape:window-height="837"
   id="namedview17"
   showgrid="false"
   inkscape:zoom="2.8284271"
   inkscape:cx="103.36554"
   inkscape:cy="68.293988"
   inkscape:window-x="-8"
   inkscape:window-y="-8"
   inkscape:window-maximized="1"
   inkscape:current-layer="Layer_1"
   fit-margin-top="0"
   fit-margin-left="0"
   fit-margin-right="0"
   fit-margin-bottom="0" />
<path
   style="fill-rule:evenodd"
   inkscape:connector-curvature="0"
   id="path7"
   d="m 121.81772,167.14809 c 66.40133,0 120.6686,-33.83923 120.6686,-75.08224 0,-41.37101 -54.26727,-75.08223 -120.6686,-75.08223 -66.52643,0 -120.79661,33.71122 -120.79661,75.08223 0,41.24301 54.27018,75.08224 120.79661,75.08224 l 0,0 z"
   clip-rule="evenodd" /><path
   style="fill:#f15f27;fill-rule:evenodd"
   inkscape:connector-curvature="0"
   id="path11"
   d="M 98.32343,167.9161 C 42.39212,160.76541 0,129.35242 0,92.19385 0,56.44041 38.94478,26.17653 91.30074,17.36763 c -1.91713,3.82844 -3.06624,8.1718 -3.06624,12.76825 0,6.25467 1.98453,11.85952 5.05077,16.71198 -40.86191,7.65979 -70.81209,31.04462 -70.81209,58.49826 0,28.34675 32.4341,52.48105 75.85025,59.11973 l 0,3.45025 z m 44.81544,0.38401 c 57.84553,-6.12958 102.28278,-38.05167 102.28278,-76.10626 0,-37.92367 -43.54415,-69.46466 -100.36565,-76.23134 0.5091,1.14911 1.02111,2.42623 1.53021,3.70334 43.67215,6.51068 76.23135,30.64498 76.23135,59.24774 0,29.49586 -34.22323,54.01126 -79.6816,59.75974 l 0,29.62678 0.003,0 z"
   clip-rule="evenodd"
   sodipodi:nodetypes="cscscsccccsccscccc" />
<path
   style="fill:#fddb22;fill-rule:evenodd"
   inkscape:connector-curvature="0"
   id="path9"
   d="m 118.49838,0 c 16.5996,0 30.00496,13.53628 30.00496,30.13588 0,16.72761 -13.40536,30.26097 -30.00496,30.26097 -16.60252,0 -30.26388,-13.53336 -30.26388,-30.26097 C 88.2345,13.53628 101.89586,0 118.49838,0 l 0,0 z m 24.64049,168.30011 c -6.63868,0.76511 -13.53336,1.14911 -20.42805,1.14911 -8.1718,0 -16.4716,-0.51201 -24.38739,-1.53021 V 84.53406 l 44.81835,-10.21402 v 93.98007 l -0.003,0 z"
   clip-rule="evenodd" /><path
   style="fill:#ffffff;fill-rule:evenodd"
   inkscape:connector-curvature="0"
   id="path13"
   d="m 118.49838,14.68539 c 8.2998,0 15.3254,7.02269 15.3254,15.45049 0,8.55581 -7.0256,15.5785 -15.3254,15.5785 -8.42781,0 -15.4505,-7.02269 -15.4505,-15.5785 0,-8.4278 7.01978,-15.45049 15.4505,-15.45049 l 0,0 z"
   clip-rule="evenodd" /></svg>