 <svg version="1.0" xmlns="http://www.w3.org/2000/svg" width="700.000000pt" height="700.000000pt" viewBox="0 0 700.000000 700.000000" preserveAspectRatio="xMidYMid meet">
<metadata>
Created by potrace 1.12, written by Peter Selinger 2001-2015
</metadata>
<g transform="translate(0.000000,700.000000) scale(0.100000,-0.100000)" fill="#000000" stroke="none">
<path d="M3390 6934 c-204 -9 -363 -26 -421 -43 -35 -11 -102 -25 -149 -32
-47 -6 -114 -23 -150 -36 -36 -13 -96 -31 -134 -39 -38 -8 -83 -23 -100 -33
-17 -10 -56 -26 -87 -35 -31 -9 -83 -29 -114 -46 -31 -16 -65 -30 -74 -30 -9
0 -33 -11 -54 -26 -21 -14 -56 -32 -79 -40 -24 -8 -52 -23 -63 -33 -11 -11
-38 -26 -60 -36 -22 -9 -49 -24 -60 -34 -11 -11 -36 -27 -56 -38 -50 -26 -123
-73 -172 -110 -247 -189 -295 -230 -437 -373 -130 -129 -175 -181 -302 -348
-18 -24 -47 -60 -64 -80 -17 -20 -39 -53 -49 -72 -10 -19 -28 -48 -41 -63 -13
-16 -24 -33 -24 -39 0 -6 -11 -25 -24 -42 -13 -17 -35 -54 -49 -83 -15 -28
-31 -54 -36 -57 -5 -4 -17 -28 -27 -54 -10 -26 -26 -57 -35 -70 -10 -13 -25
-47 -35 -75 -9 -29 -26 -65 -37 -80 -10 -16 -26 -54 -34 -85 -8 -31 -23 -71
-33 -88 -10 -17 -25 -63 -34 -101 -8 -38 -25 -91 -37 -117 -11 -27 -27 -89
-35 -140 -9 -50 -23 -119 -34 -152 -35 -115 -45 -251 -45 -639 0 -379 11 -542
41 -627 8 -24 23 -93 34 -155 10 -61 27 -128 38 -150 11 -21 27 -71 36 -112 9
-41 25 -88 35 -105 10 -17 26 -58 36 -90 9 -32 23 -68 30 -80 8 -12 24 -48 36
-81 12 -33 30 -71 39 -85 10 -14 27 -45 39 -70 12 -25 39 -74 61 -110 21 -36
53 -90 70 -120 43 -77 106 -167 166 -238 17 -20 37 -48 43 -60 11 -22 112
-141 182 -217 123 -132 316 -308 404 -368 22 -15 60 -43 85 -62 60 -48 189
-135 198 -135 4 0 33 -17 64 -38 107 -70 146 -92 185 -106 21 -7 56 -25 77
-40 21 -14 47 -26 56 -26 9 0 42 -13 72 -29 30 -16 74 -35 98 -41 25 -7 65
-23 91 -35 25 -13 76 -31 113 -39 37 -9 81 -23 98 -32 17 -9 80 -25 140 -35
59 -11 128 -26 152 -34 86 -29 391 -55 651 -55 203 0 529 27 616 50 41 11 114
27 164 36 49 8 117 26 150 39 33 13 85 29 115 36 30 6 69 19 86 29 17 10 58
25 90 35 33 9 73 25 90 34 17 10 57 28 89 40 32 12 70 30 84 40 14 9 42 24 61
31 19 7 49 24 67 37 17 12 44 28 58 33 15 6 46 23 69 39 22 16 75 50 116 76
41 26 100 67 130 91 30 25 73 56 95 71 141 92 442 399 605 618 19 26 49 63 66
83 17 21 41 56 53 79 11 23 25 45 31 48 6 4 17 23 26 43 8 20 23 46 33 57 11
11 30 43 45 72 14 28 30 54 35 57 5 4 17 28 27 54 10 26 26 59 36 74 10 15 28
53 38 84 11 32 26 65 34 73 8 9 22 43 31 76 10 33 26 77 36 97 11 21 26 68 34
105 9 38 26 93 39 123 13 30 29 93 36 140 6 47 20 114 31 150 30 98 43 294 43
635 0 318 -12 499 -39 595 -9 30 -24 105 -35 165 -11 61 -29 130 -40 155 -11
25 -26 75 -35 113 -8 37 -26 89 -39 115 -13 26 -27 63 -31 82 -4 19 -20 58
-35 85 -15 28 -31 64 -34 80 -4 17 -20 50 -36 75 -15 25 -33 62 -39 82 -7 20
-19 42 -28 49 -8 7 -26 36 -39 64 -13 27 -34 65 -47 83 -12 17 -41 62 -64 100
-44 70 -74 113 -133 187 -19 24 -55 70 -80 102 -64 80 -167 193 -279 302 -85
83 -151 138 -299 253 -23 18 -57 45 -75 59 -17 14 -48 34 -67 44 -19 9 -43 25
-53 34 -20 17 -78 51 -168 100 -30 16 -61 36 -68 45 -7 9 -30 20 -51 26 -20 5
-53 21 -72 34 -20 13 -53 29 -74 36 -22 7 -64 25 -94 41 -30 15 -77 33 -105
40 -27 6 -64 20 -81 30 -17 10 -62 26 -100 34 -38 9 -90 24 -115 35 -26 11
-89 26 -140 35 -52 8 -125 24 -164 35 -38 11 -126 24 -195 29 -146 11 -482 19
-590 15z m550 -480 c149 -17 236 -32 285 -49 39 -13 101 -30 140 -36 38 -6 96
-25 130 -40 33 -16 69 -29 80 -29 20 0 138 -50 245 -105 36 -18 76 -36 90 -40
14 -4 39 -18 56 -30 16 -13 46 -30 65 -39 19 -9 61 -34 94 -56 33 -22 80 -53
104 -68 24 -15 61 -40 81 -57 21 -16 55 -43 76 -60 141 -112 423 -398 497
-505 10 -14 38 -52 62 -85 25 -33 54 -78 66 -100 12 -21 36 -60 53 -87 62 -94
86 -137 100 -175 7 -21 25 -56 40 -77 14 -21 26 -47 26 -56 0 -9 13 -42 30
-73 16 -30 35 -77 41 -104 7 -26 22 -69 35 -94 13 -25 28 -77 35 -115 6 -38
22 -98 35 -133 14 -36 30 -116 39 -185 8 -66 21 -175 30 -241 19 -153 19 -377
0 -507 -9 -57 -22 -159 -30 -228 -8 -75 -22 -148 -35 -180 -12 -30 -28 -89
-35 -132 -8 -42 -25 -98 -38 -125 -13 -26 -27 -65 -31 -85 -7 -37 -44 -123
-112 -263 -19 -38 -34 -75 -34 -82 0 -6 -11 -25 -25 -41 -13 -16 -33 -50 -44
-75 -11 -24 -24 -48 -30 -52 -6 -3 -20 -24 -32 -46 -11 -22 -35 -61 -54 -87
-19 -26 -47 -64 -62 -85 -38 -52 -171 -209 -193 -227 -10 -8 -39 -40 -66 -70
-100 -115 -390 -352 -506 -414 -26 -14 -50 -31 -54 -37 -3 -6 -30 -22 -58 -34
-29 -13 -58 -30 -65 -38 -7 -9 -29 -21 -49 -28 -20 -6 -57 -24 -82 -39 -25
-15 -63 -33 -85 -40 -22 -7 -58 -23 -80 -35 -22 -13 -58 -26 -79 -30 -22 -4
-62 -18 -89 -32 -27 -13 -86 -31 -131 -40 -44 -8 -100 -24 -123 -34 -23 -10
-95 -26 -160 -34 -65 -8 -138 -19 -163 -24 -178 -37 -484 -38 -705 -3 -71 11
-166 25 -210 31 -44 5 -100 19 -125 30 -25 11 -79 26 -120 32 -41 7 -96 22
-121 35 -25 12 -74 30 -109 39 -35 9 -76 25 -90 34 -14 10 -42 24 -64 31 -62
20 -293 143 -352 187 -17 13 -36 23 -41 23 -6 0 -30 16 -53 35 -23 19 -46 35
-51 35 -5 0 -26 15 -46 33 -21 19 -45 38 -55 43 -9 5 -77 63 -152 129 -118
103 -333 332 -389 414 -9 14 -37 53 -62 86 -24 33 -56 81 -70 107 -13 26 -29
49 -35 53 -6 4 -22 30 -36 58 -15 29 -32 59 -40 67 -7 9 -20 35 -29 59 -8 23
-23 54 -33 69 -11 15 -29 53 -41 85 -11 32 -27 68 -35 80 -8 12 -22 50 -30 84
-9 35 -25 78 -36 97 -11 18 -27 69 -34 112 -8 44 -24 104 -36 134 -13 34 -29
114 -41 216 -10 88 -23 185 -29 214 -15 79 -12 389 5 515 8 61 22 165 30 232
9 68 24 143 35 168 11 25 27 85 36 133 9 48 24 101 34 117 10 17 26 59 35 93
9 35 27 85 40 110 47 93 105 219 105 229 0 7 11 24 24 40 13 15 35 51 50 78
44 81 79 138 110 180 17 22 48 65 70 95 45 61 231 278 255 298 9 7 43 39 76
70 111 107 223 200 320 267 28 19 61 43 75 54 14 11 30 21 35 21 6 0 36 17 67
38 109 71 146 92 188 107 23 8 53 23 68 33 15 11 45 25 67 32 22 7 61 23 86
36 26 13 68 28 95 35 27 7 69 22 94 34 25 13 83 30 130 39 47 9 108 24 135 35
28 10 73 21 100 25 28 3 127 15 220 26 284 34 355 33 695 -6z"></path>
<path d="M1334 4511 c-56 -24 -54 -3 -54 -682 l0 -627 30 -118 c16 -66 39
-130 50 -144 11 -14 29 -41 40 -61 23 -44 100 -113 155 -141 22 -12 50 -29 62
-38 34 -27 198 -44 298 -31 66 8 98 19 183 63 l102 53 113 -57 c97 -49 122
-57 187 -62 41 -4 113 -1 159 4 70 9 98 19 165 56 152 85 221 174 269 348 l31
111 3 622 c4 701 6 683 -64 702 -49 14 -218 14 -244 1 -49 -27 -49 -25 -49
-686 0 -699 0 -694 -73 -766 -43 -42 -82 -53 -160 -45 -45 4 -56 10 -91 48
-74 84 -70 41 -72 762 l-1 649 -22 21 c-19 19 -35 22 -136 26 -129 4 -159 -1
-171 -26 -5 -10 -11 -315 -14 -678 -6 -737 0 -683 -79 -760 -37 -36 -47 -39
-104 -43 -106 -7 -167 41 -198 155 -18 63 -19 110 -19 680 l0 612 -24 28 c-24
27 -27 28 -138 30 -62 2 -123 -2 -134 -6z"></path>
<path d="M3935 4511 c-11 -5 -29 -19 -40 -31 -19 -21 -20 -37 -22 -529 -2
-635 -4 -662 -69 -749 -57 -76 -116 -118 -209 -149 -81 -26 -88 -26 -159 -14
-122 20 -125 15 -116 -186 5 -107 6 -114 33 -140 27 -28 29 -28 155 -28 131 0
177 11 297 71 76 37 223 152 241 187 9 18 26 42 37 55 65 70 104 162 127 297
18 107 20 162 20 631 0 559 0 557 -55 582 -29 13 -209 15 -240 3z"></path>
<path d="M4697 2370 c-27 -21 -27 -23 -27 -141 0 -120 0 -121 30 -150 l29 -30
480 3 c445 3 482 4 498 21 15 15 19 39 21 150 3 117 1 135 -14 148 -14 12 -99
14 -504 17 -482 3 -486 3 -513 -18z"></path>
</g>
</svg>